<?xml version="1.0" encoding="utf-8"?>
<!-- Generator: Adobe Illustrator 27.5.0, SVG Export Plug-In . SVG Version: 6.00 Build 0)  -->
<svg version="1.1" id="Layer_1" xmlns="http://www.w3.org/2000/svg" xmlns:xlink="http://www.w3.org/1999/xlink" x="0px" y="0px"
	 viewBox="0 0 306.223 276.34" style="enable-background:new 0 0 306.223 276.34;" xml:space="preserve">
<g>
	<g>
		<g>
			<g>
				<path style="fill:#CCE9EF;" d="M300.288,67.633c1.814-1.858,1.836-5.415-0.228-7.406c-2.124-2.051-2.994-3.452-6.34-2.671
					c-4.584,1.064-7.946,0.712-12.357,0.378c1.081,0.081-11.432,0.097-9.46,1.404c-1.922-1.271-3.503-0.094-5.551-0.805
					c-0.016-0.687-0.36-1.152-1.068-1.287c-9.743-1.856-18.599-3.295-28.27-4.048c-1.842-0.142-3.498,0.174-5.025,0.608
					c-0.271,0.004-0.515-0.017-0.791,0c-2.82,0.156-5.227-0.023-7.575-0.286c-0.055-0.099-0.12-0.14-0.178-0.256
					c-0.186-0.399-0.663-0.714-1.126-0.714c-1.569,0.012-3.071,0.121-4.541,0.25c-1.126-0.143-2.254-0.279-3.494-0.388
					c-0.951-0.068-1.925-0.192-2.905-0.322c-0.57-0.402-1.182-0.652-1.886-0.481c-0.188,0.05-0.407,0.098-0.608,0.143
					c-1.997-0.271-4.008-0.494-5.956-0.432c-0.009-0.215-0.028-0.439-0.135-0.662c-0.184-0.387-0.371-0.782-0.563-1.184
					c-0.214-0.45-0.716-0.769-1.217-0.769c-2.656-0.044-11.104,1.238-13.573,0c-0.779-0.393-1.483-0.557-2.158-0.624
					c0.35-0.756,0.497-1.59,0.014-2.571c-0.769-1.559-2.686-1.072-4.079-0.318c-0.689-0.133-1.378-0.2-1.9-0.539
					c-1.958-1.282-3.82-2.162-6.185-1.846c-0.174,0.022-0.37,0.143-0.551,0.28c-0.402,0.028-0.8,0.245-0.904,0.633
					c-0.329,1.299,0.165,2.163,0.763,3.339c0.41,0.822,0.962,0.804,0.492,1.579c-0.287,0.461-0.332,0.915-0.283,1.389
					c-2.117,0.402-4.174,1.039-6.208,1.617c-4.14,0.93-8.165-1.403-12.608-0.452c-2.89,0.621-5.555,1.662-7.244,3.493
					c-1.653-0.541-2.792-0.205-4.75,0.942c-1.618,0.946-1.453,2.503-1.308,4.053c-0.323,0.256-0.607,0.589-0.871,0.981
					c-0.134-0.838-0.295-1.613-0.506-2.159c-0.026-0.08-0.116-0.096-0.16-0.148c0.036-0.231,0.134-0.45,0.143-0.674
					c0.017-0.326-0.065-0.643-0.394-0.78c-3.757-1.541-5.278-0.996-7.025,0.586c-1.148-0.755-2.573-1.156-3.762-0.915
					c-2.399,0.487-4.782,1.618-7.189,2.651c-0.933,0.114-1.741,0.343-2.314,0.759c-0.041,0.039-0.08,0.117-0.122,0.168
					c-1.556,0.565-3.118,0.971-4.711,1.058c-0.237-0.129-0.486-0.182-0.719-0.343c-1.973-1.77-6.394,0.591-8.409,1.001
					c-0.225,0.053-0.468,0.2-0.696,0.301c-1.979-1.094-4.657-1.063-6.937-0.739c-2.092,0.291-2.739,0.724-4.563,1.894
					c-1.303,0.837-2.361,1.359-3.374,1.78c0.53-0.756,0.893-1.661,1.094-2.381c0.153-0.563,0.193-1.405-0.521-1.63
					c-4.187-1.327-9.989,0.687-13.568-2.092c-2.239-1.737-5.291-2.895-7.964-1.282c-5.033,3.049-12.249,2.444-16.942,5.848
					c-1.331,0.968-4.554,7.244-6.742,6.892c-3.901-0.632-6.828,2.924-5.18,6.008c-0.354,0.604-0.265,1.2,0.841,1.645
					c1.292,0.521,3.208-1.228,4.325-1.264c0.66-0.014,1.223,0.28,1.806,0.509c1.893,2.287,2.663,6.989,7.806,4.668
					c3.763-1.707,4.34-5.316,5.344-8.731c0.106-0.378,0.217-1.04-0.202-1.312c-5.236-3.405,1.929-1.981,3.04-1.739
					c0.938,0.204,1.852-0.08,2.492-0.832c2.131-2.488-0.017,1.047-1.283,2.082c-0.855,0.695-1.081,1.691-1.497,2.703
					c-0.135,0.35-0.182,1.045,0.198,1.287c1.618,1.024,2.851,1.9,4.932,1.212c0.862-0.28,1.529-0.407,2.034-0.423
					c-0.148,0.22-0.225,0.478-0.107,0.729c0.023,0.043,0.042,0.09,0.067,0.139c-0.392,0.081-0.843,0.155-1.457,0.171
					c-0.728,0.031-1.12,0.392-1.66,0.859c-0.58,0.507-1.063,1.223-0.755,2.019c1.823,4.672-0.655,1.77-2.49,0.176
					c-0.546-0.481-1.301-0.085-1.728,0.352c-1.104,1.096-3.811,4.438-5.605,2.624c-0.401-0.397-1.184-0.384-1.646-0.123
					c-1.595,1.046-3.417,1.478-5.452,1.298c0.376-0.284,1.032-1.429,0.207-1.656c-1.882-0.527-3.348-1.226-3.115-3.491
					c0.018-0.207-0.088-0.361-0.299-0.389c-5.203-0.68-2.125,6.957-6.007,5.827c-0.228-0.063-0.416,0.076-0.607,0.205
					c-0.208-0.1-0.357-0.234-0.552-0.344c-0.059-0.047-0.133-0.085-0.212-0.127c-0.464-0.277-1.001-0.533-1.346-0.844
					c-1.782-1.524-4.212-2.233-5.441-4.42c-0.55-0.978-1.172-1.967-2.198-2.517c-3.726-1.978-7.68-2.78-8.25,2.848
					c-0.022,0.2,0.121,0.231,0.233,0.314c-0.164,0.266-0.352,0.511-0.412,0.819c-1.844,0.485-3.375,1.451-4.278,3.169
					c-1.798,3.432,2.505,4.245,4.339,1.905c0.296-0.373,0.454-1.121,0.168-1.465c0.893-0.162,1.747-0.29,1.924-0.131
					c0.906,0.838,2.146,0.759,1.592,1.864c-0.336,0.702-0.562,1.461,0.027,2.105c1.501,1.641,3.509,0.798,4.774-0.689
					c0.733,0.907,0.939,2.155,2.256,2.528c0.286,0.077,0.597,0.026,0.892-0.036c-1.359,3.267-4.041,0.764-7.854,3.522
					c-0.182,0.129-0.296,0.357-0.215,0.581c0.486,1.343,2.226,2.761,2.759,3.907c-2.704,0.189-4.786-2.104-8.164,0.115
					c-1.815,1.196-3.114,2.294-3.401,4.637c-0.291,2.293,3.376,3.589,2.403,6.014c-0.187,0.438-0.076,0.949,0.37,1.162
					c2.722,1.326,6.222-0.386,9.131-0.2c1.679,0.109,4.214-0.662,4.745-2.592c0.166-0.595,0.267-1.2,0.398-1.807
					c0.046-0.054,0.1-0.101,0.153-0.159c0.278,0.253,0.671,0.227,0.979,0.009c2.365-1.631,4.808-3.01,7.106-4.656
					c0.187,0.189,0.362,0.393,0.559,0.582c0.389,0.362,0.912,0.26,1.367,0.099c1.239-0.438,2.982-1.802,2.743-2.403
					c0.526,1.345,2.686,2.975,3.795,3.864c0.996,0.801,3.099,0.66,3.332,2.207c0.077,0.525,0.139,1.023,0.207,1.456
					c-0.221,0.081-0.607,0.205-1.547,0.7c-0.415,0.215-0.705,0.595-0.68,1.08c0.005,0.194,0.019,0.393,0.028,0.594
					c0.013,0.272,0.249,0.403,0.478,0.447c2.684,0.484,4.534-0.903,5.33-2.895c0.173,0.156,0.399,0.28,0.472,0.468
					c0,0.01,0.008,0.004,0.019,0.01c0.025,0.042,0.045,0.081,0.08,0.122c0.005-0.014,0.012-0.023,0.026-0.031
					c0.393,0.456,1.338-0.359,1.256-0.908c-0.169-1.166-0.946-1.823-1.435-2.896c-0.6-1.294-0.294-1.578-1.444-2.09
					c-0.103-0.048-0.226,0.073-0.348,0.1c-0.731-0.646-1.472-1.296-1.701-1.785c-0.066-0.152-0.157-0.21-0.229-0.339
					c0.829,0.08,1.659,0.178,2.487,0.54c2.277,1.009,1.388,3.211,2.736,4.651c0.761,0.827,2.911-0.009,3.768-0.103
					c0.266-0.027,0.412-0.126,0.585-0.219c-0.948,2.7-0.28,6.395,3.391,3.895c0.985-0.663,1.633-1.204,2.025-1.927
					c0.092,0.093,0.191,0.189,0.349,0.231c0.134,0.033,0.278,0.075,0.412,0.103c0.153,0.212,0.332,0.399,0.442,0.684
					c0.26,0.676,0.533,1.336,1.408,1.39c0.582,0.041,0.993,0.081,1.343,0.197c-0.026,0.211-0.08,0.434,0.027,0.594
					c0.363,0.504,0.876,0.871,1.458,1.18c0.216,0.215,0.474,0.38,0.788,0.406c0.045,0,0.083-0.034,0.13-0.034
					c1.162,0.397,2.538,0.526,3.867,0.531c1.569,1.072,5.174,2.567,5.352,3.969c0.039,0.332,0.253,0.607,0.49,0.876
					c-2.102,1.409-8.436,0.917-10.621,1.359c-5.058,1.024-7.033-3.361-11.781-0.994c-1.256,0.619-1.753,1.073-1.924,1.349
					c-0.236-0.403-1.147-1.185-4.117-2.374c-2.361-0.951-10.524,1.497-8.149-3.523c0.117-0.253,0.053-0.526-0.117-0.729
					c-0.438-0.567-0.884-1.131-1.313-1.7c-0.115-0.149-0.366-0.149-0.524-0.119c-7.941,1.437-20.464-1.175-24.323,5.572
					c-2.692,1.694-6.15,3.704-6.547,6.942c-0.113,0.894-0.053,1.373,0.054,1.704c-0.393,0.046-0.915,0.172-1.804,0.571
					c-1.528,0.695-3.578,2.522-4.268,4.075c-1.029,2.301-1.492,4.059-0.242,6.587c0.254,0.513-2.119,1.714-2.714,2.359
					c-0.784,0.854-0.701,2.315-0.241,3.311c1.413,3.075,0.518,6.314,1.854,9.348c0.151,0.335,0.508,0.508,0.856,0.544
					c0.566,0.048,1.069,0.04,1.542,0.008c0.2,0.909,0.58,1.653,1.434,2.287c0.428,0.309,0.899,0.407,1.385,0.38
					c-0.47,2.614,2.618,4.087,5.108,4.465c0.097,1.077,0.648,2.037,2.03,2.589c3.093,1.247,9.327-2.576,11.461-0.875
					c1.792,1.43,4.152,0.889,5.884-0.368c0.2-0.146,0.396-0.356,0.607-0.536c1.037,0.577,2.561,0.436,3.802,0.564
					c0.626,0.067,1.03,0.122,1.471,0.182c0.908,0.964,1.719,1.949,2.432,2.89c-0.471,0.783-0.799,1.636-0.602,2.41
					c0.535,2.088-2.083,3.925-0.922,6.287c1.001,2.038,3.061,2.318,5.075,2.26c-0.434,0.92-0.705,2.082-0.544,2.997
					c0.151,0.885,3.656,5.5,3.889,4.676c-0.354,1.257-0.419,2.302-0.255,3.225c-1.434,1.632-3.279,3.245-3.038,4.955
					c0.518,3.697,0.511,1.22-0.726,4.892c-1.062,3.132-0.219,4.689,2.411,6.841c0.009,0.008,0.015,0,0.027,0.008
					c0.285,0.756,0.635,1.568,1.056,2.442c1.036,2.208,3.465,4.71,4.612,8.057c0.708,2.093,0.25,7.6,4.339,7.007
					c1.416-0.202,1.803,1.535,3.204,1.219c3.133-0.719,4.961-4.441,8.491-3.995c4.088,0.506,12.307-11.033,12.983-14.621
					c0.137-0.688-0.218-1.322-0.822-1.619c-4.862-2.405-0.241-4.845,3.075-6.481c4.481-2.207,4.772-13.117,3.469-12.628
					c0.844-0.313,1.485-1.247,1.621-2.117c0.416-2.753-3.012-6.534-0.537-7.968c1.467-0.845,3.312-1.092,3.628-3.058
					c0.624-4.087,3.911-3.244,6.348-5.875c3.178-3.427,2.733-8.338,5.119-11.904c0.562-0.839,0.541-2.561-0.823-2.561
					c-0.94,0-1.788-0.191-2.669-0.31c0.045-0.057,0.128-0.074,0.159-0.143c1.65-3.261,3.031-3.723,6.392-4.732
					c4.759-1.404,8.632-5.598,9.709-10.27c1.337-5.848-8.933-3.322-10.7-5.981c-1.407-2.114-2.295-4.293,0.868-2.588
					c1.735,0.932,7.096-0.388,5.731,2.803c-0.149,0.33-0.109,0.756,0.148,1.015c1.323,1.314,8.167,1.118,11.696,1.446
					c2.855,1.843,5.684,4.023,7.94,6.331c0.041,0.054,0.094,0.024,0.15,0.054c-0.135,1.698,0.31,3.182,2.711,2.7
					c1.743-0.354,3.922-2.242,4.885-3.646c-0.363,0.525,0.326,1.438-0.977,2.163c-0.369,0.198-0.679,0.433-0.898,0.8
					c-2.724,4.484,4.093,5.121,1.528,9.724c-1.918,3.453,2.224,7.843,5.546,7.788c0.739-0.012,1.416-0.544,1.672-1.243
					c0.58-1.662,0.335-8.064,1.158-7.843c0.944,0.259,2.136-0.617,2.515-1.449c0.554-1.207,0.725-1.868,0.68-3.287
					c-0.077-2.812-0.425-0.026,2.398-1.009c1.563-0.548,3.049-1.014,4.275-2.237c1.501-1.49,3.915-5.836,6.463-5.559
					c0.246,0.843,0.486,1.671,0.604,2.433c-0.808,0.785-1.228,2.046-0.172,2.595c1.178,0.551,2.338,1.107,3.416,1.819
					c0.231,0.147,0.477,0.201,0.731,0.188c0,0.013,0,0.013,0,0.028c-0.041,0.299,0,0.581,0.121,0.848
					c0.059,0.326,0.107,0.53,0.161,0.74c-0.657,0.694-1.013,1.409-0.799,2.517c0.053,0.303,0.23,0.666,0.569,0.756
					c1.854,0.513,2.822-0.027,4.374-1.201c1.153-0.878,0.881-1.756,2.355,0.282c-0.166-0.233-0.924,1.309-0.953,1.457
					c-0.056,0.244-0.42,1.359-0.129,1.782c0.277,0.408,0.564,0.818,0.863,1.214c0.089,0.174,0.165,0.251,0.243,0.376
					c-0.943,0.981-1.167,2.451-1.215,3.769c-0.005,0.361,0.141,0.564,0.389,0.759c0.03,0.088,0.024,0.184,0.058,0.264
					c0.144,0.366,0.25,0.701,0.349,1.041c-0.067,0.558-0.138,1.256,0.533,2.103c0,0,0.009,0.008,0.009,0.013
					c0.26,0.892,0.668,1.512,1.677,1.758c0.608,0.634,1.146,1.313,1.31,2.144c-0.015-0.082,0.134,1.747,0.553,2.27
					c1.027,1.278,2.117,2.01,3.75,2.13c0.571,0.041,1.447-0.803,1.068-1.399c-0.963-1.481-1.809-2.759-1.148-4.567
					c0.08-0.228,0.1-0.489-0.003-0.715c-0.93-1.944-4.128-1.358-4.464-3.583c-0.087-0.586-0.447-3.816-0.152-4.027
					c0.595-0.43,1.528-1.175,2.01-1.864c0.029-0.036,0.084-0.16,0.125-0.232c0.743,1.447,1.912,2.702,3.306,3.536
					c0.906,0.551,1.391,1.844,2.64,1.284c1.822-0.823,2.936-2.471,3.923-4.117c0.078,0.028,0.135,0.053,0.266,0.081
					c0.432,0.071,0.866-0.378,1.006-0.742c1.154-3.083-1.208-6.895-4.642-7.113c-0.067-0.459-0.14-0.916-0.205-1.374
					c0.205-0.15,0.406-0.292,0.618-0.434c0.512-0.312,1.019-0.646,1.632-0.75c0.697-0.231,1.104-0.569,1.547-1.149
					c0.071-0.095,0.077-0.175,0.137-0.274c0.903-0.702,1.749-1.489,2.758-1.903c1.585-0.632,3.062-1.076,4.438-1.644
					c0.438,0.037,0.828,0.08,0.979,0.069c1.909-0.124,4.392-1.663,6.07-2.43c5.665-2.552,3.773-7.748,5.545-12.087
					c0.942-2.274-0.439-2.918-2.292-3.035c0.09-0.513-0.062-1.041-0.658-1.103c-0.131-0.014-0.25,0.054-0.37,0.082
					c0.063-0.082,0.184-0.122,0.25-0.214c0.281-0.374,0.52-0.768,0.771-1.161c1.013-0.536,1.739-1.438,2.114-2.486
					c0.612-0.466,1.316-0.836,2.285-0.902c0.854-0.063,1.648,0.435,2.409,0.908c-0.021,0.042-0.048,0.079-0.061,0.121
					c-0.473,1.533,0.433,2.017,0.959,3.047c-0.014,0.037-0.041,0.079-0.056,0.117c-0.497,1.149,0.31,2.55,1.646,2.187
					c0.218-0.054,0.358-0.14,0.552-0.197l-0.022,0.028c0.038-0.016,0.077-0.052,0.118-0.08c3.339-1.246,3.178-4.182,3.325-7.21
					c0.631-0.674,1.232-1.35,1.639-2.287c0.267-0.598,0.366-1.16,0.41-1.723c0.504-0.054,0.931-0.086,0.996-0.067
					c0.705,0.227,1.135,0.63,1.933,0.469c1.175-0.242,2.433-1.589,2.387-2.805c-0.053-1.349,1.466-1,2.106-1.526
					c0.625-0.52,0.982-0.956,1.295-1.524c1.285-0.299,2.692-0.863,3.388-2.078c0.964-1.681,1.716-3.422,2.444-5.177
					c0.246-0.207,0.519-0.363,0.755-0.627c0.249-0.269,0.322-0.58,0.322-0.862c0.241-0.305,0.43-0.689,0.635-1.056
					c0.026,0.028,0.055,0.044,0.083,0.068c-0.05,0.256-0.097,0.519-0.057,0.786c0.034,0.228,0.137,0.415,0.259,0.58
					c-0.434,1.363-1.069,2.887-1.028,3.817c0,0.152,0.08,0.243,0.151,0.354c0,0.158,0.052,0.2,0.199,0.224
					c0.42,0.259,1.122,0.167,1.471-0.144c0.803-0.696,3.511-2.135,2.921-3.601c-0.423-1.002-0.664-1.849-0.445-2.95
					c0.179-0.952-0.801-2.073-1.123-2.886c-0.219-0.552-1.033,0.014-1.121,0.38c-0.094,0.352-0.258,0.715-0.418,1.091
					c-0.083-0.068-0.201-0.121-0.325-0.174c-0.147-1.344-1.078-2.358-2.523-2.766c-2.611-0.736-3.31-0.34-4.493-1.236
					c0.643-0.627,1.472-1.073,2.763-1.525c1.744-0.613,3.599-1.908,4.915-3.205c-0.161,0.148,4.226,3.402,6.143,2.687
					c2.284-0.865,7.92-0.733,9.683-2.106c0.495-0.378,1.467-0.945,1.653-1.668c0.131-0.519,0.38-0.916,0.617-1.332
					c1.148-0.928,2.285-1.826,3.038-1.606c-0.067-0.015,2.511-0.249,4.772-0.354c0.033,0.242,0.008,0.468,0.049,0.723
					c0.43,2.45-0.7,1.337-2.029,1.605c-1.132,0.232-4.263,1.322-5.105,2.235c-1.313,1.42-0.844,3.165-0.639,4.824
					c-0.232,0.978-0.367,1.971-0.419,2.915l0,0c-0.5,0.782-2.122,3.441-1.492,4.598c0.613,1.123,2.422,1.085,3.491,0.533
					c0.496-0.259,0.937-0.581,1.388-0.872c0.714-0.263,1.485-0.737,2.297-1.359c1.077-0.579,2.268-0.913,3.246-1.572
					c2.758-1.835,3.537-5.592,6.659-6.955c1.269-0.551,1.734-1.121,2.511-2.229c0.268-0.356,0.604-0.57,0.912-0.843
					c1.445,1.602,4.358,0.273,5.793-0.439c3.801-1.901,7.012-3.292,11.053-4.276c2.083-0.507,2.508-0.51,3.303-2.403
					c0.148-0.352,0.11-0.777-0.162-1.049C300.614,67.897,300.453,67.776,300.288,67.633z M76.418,102.023
					c0.413-3.158-3.406-0.809,1.33-2.937c3.58-1.625,7.739-4.85,11.243,0.93c1.512,2.509,5.188,3.302-2.662,1.466
					C83.052,100.715,79.543,102.989,76.418,102.023z M94.996,142.797c0,0.04,0.022,0.063,0.022,0.107
					c-7.028-4.407-11.387-12.838-13.206-21.764c0.2-0.131,0.376-0.341,0.575-0.512c1.811,2.546,6.158,10.089,6.841,11.035
					c0.302,0.415,0.73,0.886,1.199,1.346c0.548,1.519,1.724,3.217,2.081,3.83c0.694,1.179,1.03,1.568,2.394,2.083
					C96.171,139.39,94.992,141.974,94.996,142.797z"/>
				<path style="fill:#CCE9EF;" d="M62.058,70.242c0,0,0,0-0.005,0C62.281,70.299,62.244,70.282,62.058,70.242z"/>
			</g>
			<path style="fill:#CCE9EF;" d="M106.317,183.59c-1.269-0.891-2.967,0.486-3.115,1.84c-0.017,0.146,0.036,0.211,0.036,0.333
				c-0.71,1.224-1.656,2.355-3.123,2.35c-1.018,0-2.316,0.148-3.163,0.772c-1.665,1.215-1.215,3.478-0.776,5.154
				c0.371,1.413-0.219,2.631-0.385,3.992c0.031,1.353-0.235,2.659-0.783,3.942c-0.084,0.148-0.813,1.259-0.818,1.728
				c-0.045,1.82,1.009,4.289,3.262,4.436c1.597,0.114,2.815-1.484,3.55-2.68c0.814-1.304,1.118-2.797,1.434-4.266
				c0.527-2.449-0.093-4.076,2.418-5.279C109.701,193.607,110.867,186.777,106.317,183.59z"/>
			<path style="fill:#CCE9EF;" d="M154.242,149.688c-2.793-0.172-4.653,3.137-4.062,5.55c0.066,0.278,0.237,0.581,0.477,0.778
				c0.008,0.031,0,0.07,0.008,0.098c0.563,2.199,3.484-0.419,3.969-1.296C155.319,153.592,156.86,149.864,154.242,149.688z"/>
			<path style="fill:#CCE9EF;" d="M208.927,177.516c-2.823-1.17-6.341-0.102-9.368-0.145c-3.016-0.04-4.304-3.009-7.195-3.007
				c-0.803,0.011-1.359,0.472-1.813,1.036c-0.108-2.175-1.249-2.377-3.462-3.226c-0.228-0.093,0.663-0.796,0.824-1.267
				c0.297-0.799,0.106-1.445-0.331-2.095c-0.189-0.282-2.24-2.204-2.206-2.318c0.221-0.805,0.003-1.51-0.263-2.269
				c-0.75-2.109-3.302-2.605-5.103-1.856c-0.304,0.121-0.571,0.425-0.787,0.759c-0.245-0.159-0.42-0.349-0.38-0.649
				c0.296-2.654-1.416-4.423-4.092-4.22c-0.283,0.028-0.566,0.473-0.34,0.7c0.015,0.032,0.045,0.058,0.064,0.077
				c0.009,0.005,0.024-0.007,0.035-0.007c1.459,1.026,2.969,1.963,2.271,4.208c-0.116,0.353-0.099,0.923,0.201,1.199
				c0.305,0.287,0.827,0.477,1.364,0.667c0,1.22,0.251,2.119,0.697,3.258c0.555,1.426,0.521,3.072,1.47,4.263
				c0.313,0.398,1.494,0.629,1.877,0.736c1.302,0.393,1.43,0.434,2.486,1.375c0.915,0.832,1.728,1.381,2.986,1.353
				c0.149-0.005,0.318-0.068,0.493-0.147c0.2,0.207,0.344,0.431,0.376,0.687c0.152,0.654,0.689,0.625,1.163,0.344
				c0.053,0.372,0.215,0.721,0.572,0.898c1.574,0.809,3.489,1.957,5.215,0.729c0.986-0.704,5.591-0.527,6.954-0.527
				c1.929,0.008,3.937,0.085,5.883,0.282C208.886,178.398,209.383,177.708,208.927,177.516z"/>
			<path style="fill:#CCE9EF;" d="M206.362,155.358c-1.767-0.944-3.123-0.12-4.305,1.35c-0.076,0.101-0.104,0.196-0.183,0.298
				c-1.332,0.129-2.578,1.39-3.164,2.603c-0.393,0.799-1.742,0.086-2.936,0.839c-1.113,0.691-2.247,1.539-2.505,2.897
				c-0.171,0.948,0.062,1.576,0.5,2.418c0.825,1.603,0.866,0.883,0.178,2.324c-0.571,1.158,1.374,3.034,2.523,2.761
				c0.688-0.17,1.207-0.356,1.715-0.87c0.339-0.067,0.658-0.143,0.984-0.279c0.784,0.29,1.536,1.561,2.177,1.956
				c1.484,0.926,3.183,0.331,3.922-1.299c0.407-0.88,0.539-1.553,0.297-2.502c-0.025-0.129-0.175-0.157-0.238-0.266
				c1.17-0.364,2.23-1.284,2.523-2.444c0.395-1.634,0.593-3.427,0.808-5.102C208.834,158.572,207.697,156.068,206.362,155.358z"/>
			<path style="fill:#CCE9EF;" d="M212.318,128.523c-0.179-0.277-0.423-0.358-0.667-0.358c0-0.131,0.053-0.255,0.05-0.39
				c-0.006-0.17-0.239-0.037-0.266,0.054c-0.12,0.165-0.24,0.326-0.357,0.487c-0.285,0.146-0.546,0.365-0.706,0.6
				c-0.164,0.243-0.216,0.478-0.292,0.714c-0.007,0.009-0.007,0.019-0.015,0.035c-0.029,0.112-0.113,0.202-0.139,0.346
				c0.018,0,0.039-0.013,0.056-0.013c-0.056,0.381,0.092,0.727,0.62,0.638c0.068-0.018,0.107-0.054,0.162-0.075
				c0.524,0.316,1.311-0.303,1.578-0.682C212.65,129.435,212.588,128.966,212.318,128.523z"/>
			<path style="fill:#CCE9EF;" d="M129.221,48.777c-0.737,0.354-1.422,0.75-2.119,1.121c-2.126-0.072-4.803,0.272-6.492,1.679
				c-0.752,0.013-1.5,0.084-2.066,0.496c-0.728,0.526-0.868,0.64-1.44,1.31c-0.852,0.993-1.832,0.673-2.969,1.083
				c-1.368,0.493-2.199,0.87-2.824,2.201c-0.18,0.38-0.039,0.833,0.323,1.025c0.853,0.432,1.652,0.701,2.459,1.014
				c0.626,0.343,1.287,0.579,2.052,0.499c0.769-0.087,1.954-2.389,2.471-2.134c0.756,0.37,1.74-0.211,2.222-0.739
				c0.419-0.455,0.847-0.878,1.069-1.46c0.372-1,1.018-1.592,1.802-1.984c0.249-0.084,0.465-0.155,0.693-0.255
				c0.662-0.224,1.358-0.389,2.087-0.512c1.353-0.237,3.015-0.041,4.055-1.162C131.678,49.742,130.875,47.979,129.221,48.777z"/>
			<path style="fill:#CCE9EF;" d="M45.795,103.672c0.2-0.282,0.345-0.59,0.431-1.105c0.02-0.146-0.125-0.221-0.176-0.348
				c0.031-0.046,0.097-0.099,0.035-0.12c-0.08-0.022-0.09-0.076-0.146-0.11c-0.066-0.072-0.041-0.213-0.133-0.261
				c-0.391-0.176-0.791-0.349-1.185-0.52c0,0.022,0.003,0.034,0.003,0.046c-0.093-0.013-0.115-0.106-0.233-0.093
				c-0.888,0.053-2.117,1.426-1.007,2.056c0.182,0.111,0.307,0.101,0.419,0.09c-0.117,0.105-0.237,0.236-0.434,0.551
				c-0.316,0.515-0.335,1.163,0.238,1.487c0.931,0.517,0.785,0.473,1.877,0.41c0.522-0.024,1.046-0.558,0.848-1.098
				C46.091,104.034,46.035,103.869,45.795,103.672z"/>
			<path style="fill:#CCE9EF;" d="M262.38,198.693c-1.316-0.988-2.062-1.145-2.584-2.836c-0.667-2.144-3.866-2.963-5.075-4.85
				c-2.222-3.49-5.04-5.229-8.352-7.031c-0.358-0.563-0.882-1.078-1.518-1.087c-0.246,0-0.524,0.111-0.785,0.162
				c-0.229-0.12-0.407-0.232-0.688-0.352c-0.242-0.106-0.503-0.053-0.755,0.049c-0.506-0.075-1.047,0.103-1.364,0.473
				c-0.626,0.737-1.172,1.425-1.551,2.337c-0.893,2.081-2.47,1.988-4.37,2.61c-0.408,0.132-0.778,0.309-1.15,0.498
				c0.054-0.535,0.567-1.286,0.755-1.685c0.561-1.228,1.081-2.054,0.153-3.187c-1.326-1.58-7.677-1.537-9.187,0.094
				c-0.193,0.201-0.379,0.591-0.551,0.96c-0.307,0.108-0.611,0.187-0.912,0.325c-0.366,0.14-0.703,0.361-1.054,0.525
				c-0.108-0.352-0.345-0.675-0.674-0.795c-3.699-1.37-5.834,1.944-8.031,4.415c-2.602,0.559-6.363,4.282-7.355,5.193
				c-0.594,0.537-1.16,0.846-1.755,1.107c-0.756,0.041-1.471,0.137-2.123,0.295c-0.224-0.013-0.402,0.079-0.638,0.027
				c-0.791-0.147-1.963,0.542-2.467,1.096c-0.998,1.068-1.21,2.169-0.878,3.227c-0.076,0.485-0.129,0.966-0.12,1.537
				c0.044,2.402,6.198,10.666,4.15,12.051c-1.832,1.243-0.707,3.076,0.904,3.84c-0.109,0.422-0.061,0.862,0.471,0.938
				c2.871,0.378,8.445,1.962,9.892-2.017c0-0.008,0-0.008,0-0.021c0.297-0.045,0.797-0.148,1.617-0.376
				c1.862-0.528,3.879-0.692,5.765-1.162c0.865-0.215,1.74-0.269,2.611-0.385c1.53,0.316,2.847,0.91,3.699,2.006
				c0.6,0.779,1.889,1.362,3.271,1.912c0.137,0.173,0.265,0.339,0.397,0.515c0.278,0.352,0.902,0.365,1.291,0.291
				c0.067-0.017,0.097-0.048,0.153-0.063c1.158,0.438,2.265,0.889,2.958,1.429c1.227,0.955,2.868,1.453,4.433,2.015
				c-0.107,0.445-0.035,0.877,0.258,1.249c0.888,1.167,2.855,1.858,4.312,1.193c0.828-0.379,1.788-0.879,2.278-1.688
				c1.199-1.939,0-1.578,1.92-0.806c5.473,2.199,8.468-11.688,9.318-14.327c0.586-1.829,1.228-2.809-0.019-4.352
				c-0.357-0.435-0.736-0.764-1.112-1.066c-0.436-1.702,1.618-1.093,2.954-1.216C261.935,201.663,263.559,199.583,262.38,198.693z"
				/>
			<path style="fill:#CCE9EF;" d="M258.617,171.744c-1.054,0.077-1.99,0.805-3.011,0.639c-1.74-0.275-2.636,0.741-4.09,1.525
				c-0.173-0.113-0.335-0.226-0.322-0.313c0.243-3.297-5.627-4.173-7.726-4.916c-4.095-1.456-5.927-3.401-9.67,0.178
				c-0.796,0.769-0.648,0.566-1.645,0.349c0.099-0.146,0.155-0.339-0.027-0.447c-1.083-0.63,0.322-3.177-1.657-3.307
				c-0.501-0.023-1.068,0.121-1.563,0.354c-0.025,0.005-0.025,0.012-0.053,0.018c-0.124,0.069-0.278,0.102-0.393,0.189
				c-0.652,0.508-0.734-0.088-1.144-0.574c-0.445-0.511-1.238,0.322-1.282,0.758c-0.1,0.906,0.043,1.616,0.413,2.024
				c-0.086,0.245-0.103,0.487,0.115,0.661c0.857,0.743,0.957,3.079,1.992,3.495c1.033,0.412,2.943,0.759,4.027,0.296
				c0.77-0.322,3.393,1.738,4.142,2.267c0.501,0.336,0.941,0.417,1.392,0.549c-0.417,0.598-0.637,1.313-0.506,2.212
				c0.292,2.06,2.646,1.61,4.277,1.46c0.477,0.301,1.082,0.423,1.788,0.044c1.447-0.766,2.902-1.221,4.499-1.626
				c3.413-0.872,3.362,3.215,5.247,4.42c0.957,0.616,2.86-0.81,2.098-1.87c-1.033-1.437-0.507-3.099-1.277-4.652
				c1.909,0.18,3.393-0.136,5.049-2.412C259.747,172.433,259.384,171.682,258.617,171.744z"/>
			<path style="fill:#CCE9EF;" d="M216.743,163.385c-2.297,1.208-5.309-1.515-7.123,1.434c-0.314,0.509-0.372,0.998-0.282,1.451
				c-0.237,0.282-0.345,0.615-0.371,0.981c-0.497,0.409-0.804,1.158-0.35,1.672c0.187,0.216,0.374,0.29,0.578,0.33
				c0.024,0.087-0.055,0.196,0,0.274c0.237,0.346,0.31,0.663,0.343,0.988c0.014,0.053,0.021,0.104,0.044,0.161
				c0.021,1.054-0.725,2.025-0.398,3.239c0.2,0.756,1.024,0.853,1.59,0.379c0.864-0.7,1.194-1.399,1.323-2.488
				c0.76,1.705,3.212,1.792,3.904-0.157c0.955-2.699-1.259-3.634-3.119-5.077c-1.927-1.496,1.131-0.592,2.212-0.924
				c1.054-0.321,1.56-0.627,2.168-1.572C217.513,163.688,217.238,163.115,216.743,163.385z"/>
			<path style="fill:#CCE9EF;" d="M289.897,227.004c-1.537,0.583-3.129,2.434-4.776,2.252c-1.498-0.169-2.186,1.558-3.347,1.635
				c-0.707,0.058-1.547,0.974-1.592,1.755c-0.261,0.123-0.492,0.326-0.685,0.568c-0.014,0.025-0.036,0.034-0.053,0.052
				c-0.437,0.59-0.556,1.342,0.01,1.703c0.059,0.055,0.135,0.062,0.202,0.096c0.068,0.026,0.09,0.064,0.176,0.08
				c2.105,0.434,3.097,1.672,5.1,0.183c0.938-0.694,1.609-1.832,2.279-2.76c1.111-1.548,2.442-2.888,3.501-4.482
				C291.166,227.414,290.665,226.709,289.897,227.004z"/>
			<path style="fill:#CCE9EF;" d="M296.974,222.835c-0.487-0.986-1.925-0.8-2.767-1.064c-1.35-0.419-1.507-2.877-2.973-3.538
				c-0.875-0.403-1.696,0.839-1.467,1.587c0.592,1.914-0.008,3.925,0.621,5.889c0.444,1.364,1.813,0.528,1.996,1.53
				c0.135,0.751,1.031,0.794,1.538,0.358c0.122-0.1,0.251-0.24,0.371-0.376c0.169-0.071,0.34-0.133,0.486-0.311
				c0.076-0.098,0.103-0.186,0.175-0.282c0.009,0.008,0.023,0.01,0.027,0.01c0.293-0.577,1.478-0.845,1.899-1.523
				C297.293,224.443,297.314,223.532,296.974,222.835z"/>
			<path style="fill:#CCE9EF;" d="M252.599,227.25c-0.04-0.272-0.224-0.554-0.493-0.647c-1.037-0.337-1.716,0.036-2.734,0.294
				c-0.161,0.04-0.309,0.152-0.458,0.231c-0.615-0.026-1.188,0.046-1.811,0.694c-0.697,0.729-0.056,2.108,0.556,2.667
				C250.483,233.106,253.014,230.686,252.599,227.25z"/>
			<path style="fill:#CCE9EF;" d="M221.432,177.39c-2.534-1.011-7.028-1.331-7.479,2.356c-0.255,2.041,1.288,1.932,2.677,1.173
				c1.433-0.33,2.901-0.648,4.231-1.219C221.578,179.392,222.557,177.841,221.432,177.39z"/>
			<path style="fill:#CCE9EF;" d="M219.352,150.829c-1.087-1.064-2.311-0.782-3.259,0.049c-1.433,0.211-2.688,0.958-2.445,2.672
				c0.087,0.604,0.53,1.041,1.041,1.445c0.182,0.487,0.519,0.919,1.099,0.903c0.049,0,0.081-0.027,0.13-0.027
				c0.506,0.337,0.987,0.675,1.254,1.091c0.555,0.866,0.985,1.054,1.917,0.439C220.724,156.332,220.634,152.093,219.352,150.829z"/>
			<path style="fill:#CCE9EF;" d="M213.04,137.322c-0.094-0.661-0.559-0.679-1.011-0.425c-0.062-0.046-0.062-0.15-0.134-0.128
				c-1.24,0.376-2.048,1.458-2.323,2.745c-0.533,2.618,0.183,3.13,1.917,4.982c0.77,0.808,2.181,0.613,2.754-0.319
				C215.81,141.609,213.415,139.936,213.04,137.322z"/>
			<path style="fill:#CCE9EF;" d="M216.749,145.73c0.192,0,0.373-0.378,0.136-0.378c-0.092,0-0.16,0.087-0.207,0.166
				c-0.009-0.025,0-0.053-0.021-0.08c-0.184-0.251-0.367-0.496-0.553-0.742c-0.027-0.024-0.053,0-0.079-0.018
				c-0.062-0.038-0.117-0.049-0.199-0.049c-0.185-0.049-0.342-0.031-0.52,0.116c-0.362,0.217-0.547,0.558-0.47,0.881
				c0,0.11,0.026,0.161,0.064,0.239c0.03,0.034,0,0.058,0.03,0.085c0.249,0.189,0.492,0.374,0.741,0.553
				c0.514,0.39,1.165-0.295,1.042-0.848C216.726,145.682,216.702,145.73,216.749,145.73z"/>
			<path style="fill:#CCE9EF;" d="M248.064,98.938c-0.475-0.382-0.694-0.652-1.304-0.6c-0.638,0.07-1.637-1.509-2.422-1.74
				c-0.16-0.044-0.311,0-0.471,0.018c-0.3-0.259-0.669-0.3-1.087-0.152c-1.059,0.366-1.836,1.136-1.981,2.068
				c-1.264,1.212-1.574,3.138-0.247,4.49c-0.584,0.271-1.165,0.609-1.448,1.15c-0.365,0.689-0.397,2.47-0.782,2.902
				c-1.847,2.064-5.114,2.172-7.531,2.845c-1.457,0.403-2.322,1.622-3.814,2.018c-0.86,0.23-1.627,0.708-2.227,1.359
				c-1.582,1.711-0.133,4.409-1.303,5.89c-0.34,0.424-0.457,0.88-0.279,1.355c-0.34,0.625-0.616,1.29-0.867,2.063
				c-0.115,0.361-0.027,0.916,0.47,0.907c2.128-0.04,4.492-2.43,5.272-4.3c0.841-2.015,3.061-2.099,4.677-3.319
				c0.068-0.054,4.089-2.448,4.043-2.638c0.02,0,0.037-0.008,0.054-0.016c0.521,0.309,1.089,0.058,1.56-0.348
				c1.399-0.256,3.013-1.082,3.75-2.274c1.255-2.032-0.652-4.744,0.295-6.905c0.066-0.15,0.059-0.28,0.059-0.419
				c0.997-0.645,0.9-1.375,1.3-2.381c-0.705,1.765,3.324,1.266,4.04,0.839C248.638,101.254,248.824,99.567,248.064,98.938z"/>
		</g>
	</g>
	<g>
		<path style="fill:#519BCA;" d="M158.994,4.145c-71.37,0-129.226,57.856-129.226,129.226s57.856,129.226,129.226,129.226
			c71.37,0,129.226-57.857,129.226-129.226S230.363,4.145,158.994,4.145z M158.994,241.574
			c-59.759,0-108.203-48.444-108.203-108.203c0-59.759,48.444-108.203,108.203-108.203c59.759,0,108.203,48.444,108.203,108.203
			C267.197,193.13,218.753,241.574,158.994,241.574z"/>
		<g>
			<path style="fill:#519BCA;" d="M133.04,206.203h-1.396l-5.376-8.078h-0.028v8.078h-1.291v-10.288h1.39l5.376,8.077h0.028v-8.077
				h1.298V206.203z"/>
			<path style="fill:#519BCA;" d="M139.799,195.739c1.441,0,2.62,0.49,3.537,1.467c0.917,0.978,1.375,2.267,1.375,3.867
				c0,1.595-0.46,2.879-1.382,3.85c-0.923,0.971-2.099,1.456-3.53,1.456c-1.483,0-2.676-0.503-3.58-1.509
				c-0.903-1.006-1.354-2.234-1.354-3.684c0-1.689,0.457-3.019,1.372-3.99C137.152,196.225,138.339,195.739,139.799,195.739z
				 M139.784,205.213c1.043,0,1.889-0.365,2.537-1.094c0.648-0.73,0.975-1.746,0.979-3.046c0-1.338-0.331-2.367-0.993-3.088
				c-0.662-0.72-1.494-1.081-2.495-1.081c-1.03,0-1.877,0.353-2.541,1.06c-0.665,0.707-0.997,1.789-0.997,3.249
				c0,1.193,0.325,2.159,0.976,2.895C137.901,204.845,138.746,205.213,139.784,205.213z"/>
			<path style="fill:#519BCA;" d="M154.86,195.915l-4.029,10.288h-1.39l-3.986-10.288h1.466l2.674,7.474
				c0.201,0.477,0.379,1.036,0.533,1.678h0.028c0.14-0.548,0.317-1.107,0.533-1.678l2.786-7.474H154.86z"/>
			<path style="fill:#519BCA;" d="M163.78,206.203h-7.685v-10.288h7.446v1.221h-6.084v3.144h5.692v1.221h-5.692v3.481h6.323V206.203
				z"/>
			<path style="fill:#519BCA;" d="M175.423,206.203h-1.292v-8.612h-0.027l-2.962,8.612h-1.221l-2.948-8.752h-0.042v8.752h-1.291
				v-10.288h2.035l2.435,7.285c0.272,0.81,0.428,1.317,0.471,1.523h0.027c0.127-0.398,0.309-0.947,0.548-1.649l2.456-7.159h1.811
				V206.203z"/>
			<path style="fill:#519BCA;" d="M183.432,200.729c0.645,0.197,1.128,0.516,1.449,0.958c0.32,0.442,0.48,0.951,0.48,1.527
				c0,0.575-0.145,1.105-0.435,1.586c-0.29,0.482-0.702,0.837-1.235,1.064c-0.533,0.226-1.256,0.34-2.168,0.34h-3.938v-10.288h3.86
				c1.249,0,2.13,0.271,2.642,0.814c0.512,0.543,0.769,1.146,0.769,1.811c0,0.449-0.118,0.864-0.354,1.246
				C184.265,200.166,183.909,200.481,183.432,200.729z M178.946,200.224h2.232c0.459,0,0.844-0.026,1.155-0.078
				c0.312-0.051,0.586-0.187,0.825-0.407c0.239-0.22,0.358-0.561,0.358-1.024c0-0.487-0.121-0.846-0.362-1.078
				c-0.241-0.231-0.529-0.372-0.863-0.424c-0.334-0.051-0.764-0.077-1.288-0.077h-2.057V200.224z M178.946,204.982h2.562
				c0.917,0,1.553-0.157,1.909-0.471c0.355-0.313,0.533-0.745,0.533-1.298c0-0.557-0.189-0.991-0.568-1.303
				c-0.379-0.311-1.062-0.466-2.05-0.466h-2.386V204.982z"/>
			<path style="fill:#519BCA;" d="M194.927,206.203h-7.685v-10.288h7.447v1.221h-6.084v3.144h5.691v1.221h-5.691v3.481h6.323
				V206.203z"/>
			<path style="fill:#519BCA;" d="M205.91,206.203h-1.712c-1.025-1.619-1.661-2.613-1.91-2.983
				c-0.248-0.369-0.509-0.687-0.782-0.951s-0.531-0.431-0.772-0.501c-0.241-0.07-0.56-0.106-0.958-0.106h-1.572v4.541h-1.361
				v-10.288h4.555c0.622,0,1.144,0.04,1.566,0.119c0.421,0.08,0.79,0.246,1.108,0.501c0.318,0.256,0.563,0.577,0.733,0.965
				c0.171,0.388,0.257,0.798,0.257,1.229c0,0.777-0.245,1.401-0.737,1.874c-0.492,0.473-1.207,0.772-2.147,0.898v0.028
				c0.688,0.304,1.333,0.928,1.937,1.874L205.91,206.203z M198.204,200.441h2.919c0.59,0,1.056-0.05,1.401-0.151
				c0.344-0.1,0.619-0.296,0.824-0.586c0.206-0.29,0.309-0.615,0.309-0.975c0-0.468-0.171-0.866-0.512-1.193
				c-0.341-0.328-0.906-0.492-1.691-0.492h-3.25V200.441z"/>
			<path style="fill:#519BCA;" d="M215.455,206.203h-1.264v-8.05c-0.631,0.599-1.476,1.106-2.533,1.523v-1.221
				c1.455-0.697,2.447-1.561,2.975-2.59h0.821V206.203z"/>
			<path style="fill:#519BCA;" d="M225.386,203.747h-1.39v2.456h-1.264v-2.456h-4.456v-1.165l4.68-6.667h1.039v6.667h1.39V203.747z
				 M222.733,202.582v-4.646h-0.027l-3.193,4.646H222.733z"/>
		</g>
		<g>
			<g>
				<path style="fill:#4264AF;" d="M121.385,74.579h5.705l-6.969,29.446h-6.011l-2.527-12.483c-0.651-3.063-1.11-6.049-1.493-9.381
					h-0.077c-0.497,3.332-1.034,6.28-1.761,9.381l-2.872,12.483h-5.974l-6.471-29.446h6.011l2.259,12.712
					c0.613,3.523,1.187,7.16,1.608,10.301h0.115c0.422-3.293,1.149-6.701,1.914-10.376l2.681-12.637h5.59l2.489,12.789
					c0.651,3.446,1.225,6.701,1.607,10.147h0.116c0.459-3.484,1.034-6.816,1.646-10.339L121.385,74.579z"/>
				<path style="fill:#4264AF;" d="M153.734,88.938c0,10.262-5.207,15.507-12.52,15.507c-7.773,0-12.177-6.509-12.177-15.047
					c0-8.807,4.863-15.278,12.56-15.278C149.752,74.119,153.734,81.088,153.734,88.938z M134.972,89.282
					c0,5.782,2.259,10.53,6.433,10.53c4.212,0,6.394-4.71,6.394-10.644c0-5.398-2.029-10.415-6.356-10.415
					C137.001,78.753,134.972,83.884,134.972,89.282z"/>
				<path style="fill:#4264AF;" d="M158.056,74.963c1.952-0.345,4.71-0.613,7.581-0.613c3.714,0,11.219,0.459,11.219,8.347
					c0,3.599-2.298,6.242-5.055,7.313v0.115c2.068,0.803,3.217,2.795,3.906,5.781c0.842,3.485,1.608,7.008,2.182,8.118h-5.82
					c-0.422-0.843-1.149-3.408-1.838-6.969c-0.766-3.791-1.953-4.978-4.633-4.978h-1.915v11.947h-5.629V74.963z M163.685,87.866
					h2.335c3.217,0,5.169-1.876,5.169-4.672c0-3.791-2.833-4.519-4.901-4.519c-1.264,0-2.144,0.077-2.603,0.23V87.866z"/>
				<path style="fill:#4264AF;" d="M197.76,99.238v4.787h-16.196V74.579h5.667v24.659H197.76z"/>
				<path style="fill:#4264AF;" d="M201.547,74.963c2.067-0.384,4.748-0.613,7.62-0.613c4.901,0,8.232,1.033,10.682,3.063
					c2.795,2.297,4.442,5.935,4.442,11.257c0,6.317-2.182,9.994-4.442,12.023c-2.68,2.413-6.777,3.6-11.908,3.6
					c-2.719,0-4.901-0.191-6.394-0.384V74.963z M207.176,99.66c0.574,0.115,1.416,0.115,2.182,0.115
					c5.398,0.038,8.998-3.293,8.998-11.028c0-6.662-3.255-9.955-8.501-9.955c-1.187,0-2.068,0.115-2.68,0.229V99.66z"/>
			</g>
			<g>
				<g>
					<path style="fill:#FF151F;" d="M74.017,116.116c2.02-0.374,4.637-0.599,7.441-0.599c4.786,0,8.038,1.01,10.43,2.992
						c2.73,2.243,4.338,5.795,4.338,10.992c0,6.169-2.131,9.758-4.338,11.739c-2.616,2.356-6.618,3.514-11.627,3.514
						c-2.655,0-4.785-0.187-6.244-0.373V116.116z M79.513,140.232c0.561,0.112,1.384,0.112,2.131,0.112
						c5.272,0.037,8.786-3.215,8.786-10.768c0-6.506-3.178-9.721-8.3-9.721c-1.159,0-2.019,0.113-2.617,0.225V140.232z"/>
					<path style="fill:#FF151F;" d="M100.411,144.494v-28.751h5.534v28.751H100.411z"/>
					<path style="fill:#FF151F;" d="M124.563,115.742l8.039,28.751h-5.795l-2.057-7.589h-7.701l-1.982,7.589h-5.608l8.15-28.751
						H124.563z M117.833,132.716h6.132l-1.72-6.543c-0.449-1.794-0.935-4.112-1.308-5.869h-0.113
						c-0.374,1.794-0.86,4.15-1.271,5.832L117.833,132.716z"/>
					<path style="fill:#FF151F;" d="M136.339,116.116c1.645-0.336,4.486-0.599,7.29-0.599c3.477,0,5.945,0.449,7.926,1.833
						c1.72,1.159,2.805,3.065,2.805,5.421c0,2.616-1.534,5.047-4.599,6.206v0.15c3.215,0.823,5.608,3.366,5.608,7.029
						c0,2.244-0.934,4.412-2.617,5.908c-1.944,1.757-5.159,2.691-10.281,2.691c-2.729,0-4.786-0.187-6.132-0.373V116.116z
						 M141.835,127.445h2.019c3.14,0,5.01-1.682,5.01-4.037c0-2.842-2.131-3.777-4.599-3.777c-1.196,0-1.944,0.075-2.43,0.188
						V127.445z M141.835,131.483v8.973c0.561,0.113,1.233,0.15,2.205,0.15c2.992,0,5.534-1.346,5.534-4.598
						c0-3.328-2.842-4.524-5.683-4.524H141.835z"/>
					<path style="fill:#FF151F;" d="M175.782,139.858v4.636h-16.077v-28.751h15.478v4.637h-9.944v6.954h9.384v4.524h-9.384v8.001
						H175.782z"/>
					<path style="fill:#FF151F;" d="M197.428,115.742v4.787h-7.104v23.965h-5.533v-23.965h-7.067v-4.787H197.428z"/>
					<path style="fill:#FF151F;" d="M216.756,139.858v4.636h-16.077v-28.751h15.478v4.637h-9.944v6.954h9.384v4.524h-9.384v8.001
						H216.756z"/>
					<path style="fill:#FF151F;" d="M220.831,138.623c1.496,0.898,3.889,1.609,6.206,1.609c3.065,0,4.673-1.459,4.673-3.589
						c0-2.057-1.383-3.291-4.561-4.674c-4.337-1.869-7.029-4.561-7.029-8.3c0-4.711,3.701-8.338,9.907-8.338
						c2.729,0,4.824,0.636,6.169,1.309l-1.159,4.523c-1.01-0.523-2.767-1.233-5.122-1.233c-2.917,0-4.225,1.571-4.225,3.178
						c0,2.057,1.421,2.991,4.935,4.599c4.598,2.055,6.654,4.711,6.654,8.486c0,5.01-3.776,8.674-10.468,8.674
						c-2.842,0-5.721-0.785-7.067-1.607L220.831,138.623z"/>
				</g>
			</g>
			<g>
				<path style="fill:#4264AF;" d="M124.194,156.435c2.068-0.383,4.748-0.613,7.62-0.613c4.901,0,8.233,1.033,10.683,3.063
					c2.794,2.297,4.441,5.935,4.441,11.257c0,6.317-2.182,9.994-4.441,12.023c-2.681,2.413-6.778,3.6-11.909,3.6
					c-2.719,0-4.901-0.191-6.394-0.383V156.435z M129.823,181.132c0.574,0.115,1.417,0.115,2.182,0.115
					c5.398,0.039,8.998-3.293,8.998-11.027c0-6.663-3.255-9.956-8.501-9.956c-1.187,0-2.067,0.115-2.68,0.23V181.132z"/>
				<path style="fill:#4264AF;" d="M164.547,156.052l8.233,29.445h-5.935l-2.106-7.773h-7.888l-2.03,7.773h-5.743l8.347-29.445
					H164.547z M157.656,173.436h6.279l-1.762-6.701c-0.459-1.838-0.957-4.212-1.339-6.011h-0.116
					c-0.383,1.838-0.88,4.25-1.301,5.973L157.656,173.436z"/>
				<path style="fill:#4264AF;" d="M190.428,156.052h6.242l-8.73,17.269v12.176h-5.668v-11.985l-8.347-17.46h6.318l2.91,7.236
					c0.842,2.107,1.532,3.945,2.22,5.973h0.077c0.574-1.952,1.301-3.867,2.145-6.011L190.428,156.052z"/>
			</g>
		</g>
		<g>
			<path style="fill:#34A1C9;" d="M123.373,251.633c-0.125-0.049-11.117-4.395-25.002-10.489
				c-3.033,12.867-5.728,22.809-6.069,24.062l-1.802,6.99l-30.696-17.003l3.32-9.251c0.351-0.99,1.556-4.439,1.556-4.439
				s1.5-4.328,2.033-5.883l1.595-4.692c0.367-1.085,0.744-2.208,1.128-3.356c-1.701-0.867-3.339-1.717-4.896-2.542
				c-19.507-10.337-24.626-15.816-26.779-19.04c-3.302-4.94-4.271-10.442-2.803-15.908c3.453-12.857,18.683-20.91,21.702-22.394
				c0.87-0.428,1.707-0.805,2.493-1.122l0.124-0.062c0.64-0.315,1.254-0.607,1.833-0.875c0.394-0.205,0.812-0.417,1.244-0.634
				c0.738-0.434,1.558-0.872,2.439-1.305c2.185-1.074,6.696-3.062,12.365-4.299c3.029-0.724,5.954-1.071,8.597-1.008
				c10.492-0.058,17.919,4.815,20.92,13.729c1.402,4.167,2.668,12.665-1.88,38.39c0.694,0.242,1.379,0.479,2.051,0.71
				c11.765,4.058,20.689,6.916,20.777,6.945l3.982,1.275l-0.743,35.155L123.373,251.633z M74.041,199.18
				c1.261,0.501,2.56,1.011,3.909,1.534l0.028-0.095c0.395-1.342,0.791-2.701,1.175-4.046l1.094-3.9l0.789-2.914
				c0.188-0.713,0.733-2.827,0.733-2.827l0.759-3.077l0.412-1.762c-4.702,1.455-8.736,3.181-11.526,4.503
				c-2.873,1.463-6.92,3.731-11.136,6.755c2.588,1.191,5.546,2.474,8.859,3.843c1.47,0.606,2.979,1.219,4.518,1.831L74.041,199.18z"
				/>
			<g>
				<path style="fill:#FFFFFF;" d="M120.85,248.01c-0.125-0.049-11.117-4.395-25.002-10.489c-3.033,12.867-5.728,22.809-6.07,24.062
					l-1.802,6.99L57.28,251.569l3.32-9.25c0.351-0.989,1.556-4.439,1.556-4.439s1.5-4.328,2.033-5.883l1.595-4.692
					c0.368-1.085,0.744-2.208,1.127-3.356c-1.701-0.867-3.338-1.716-4.895-2.542c-19.507-10.336-24.626-15.816-26.779-19.039
					c-3.302-4.94-4.271-10.442-2.803-15.908c3.453-12.858,18.683-20.91,21.702-22.394c0.87-0.428,1.707-0.805,2.493-1.122
					l0.124-0.062c0.64-0.315,1.254-0.607,1.833-0.875c0.394-0.205,0.812-0.417,1.244-0.634c0.738-0.434,1.558-0.872,2.438-1.305
					c2.185-1.074,6.696-3.061,12.365-4.299c3.029-0.725,5.954-1.071,8.596-1.008c10.492-0.058,17.919,4.815,20.92,13.729
					c1.402,4.167,2.669,12.665-1.88,38.39c0.694,0.242,1.379,0.479,2.051,0.711c11.765,4.058,20.688,6.916,20.777,6.945l3.982,1.275
					l-0.743,35.155L120.85,248.01z M71.519,195.558c1.261,0.501,2.56,1.011,3.909,1.533l0.027-0.095
					c0.395-1.342,0.791-2.701,1.175-4.046l1.094-3.9l0.789-2.914c0.188-0.713,0.733-2.827,0.733-2.827l0.759-3.076l0.411-1.762
					c-4.702,1.455-8.736,3.18-11.526,4.503c-2.872,1.463-6.92,3.731-11.136,6.755c2.587,1.191,5.546,2.474,8.859,3.843
					c1.47,0.606,2.979,1.219,4.518,1.831L71.519,195.558z"/>
				<g>
					<g>
						<path style="fill:#1E86B3;" d="M51.821,204.622c0,0-9.748-9.785-0.167-17.318c9.582-7.532,19.281-11.478,19.281-11.478
							l-5.282-10.744c0,0-23.77,8.803-25.976,21.056C37.472,198.392,51.821,204.622,51.821,204.622z"/>
						<path style="fill:#1E86B3;" d="M96.457,182.677c0,0-1.795-13.695-13.611-10.708c-11.816,2.988-20.863,8.259-20.863,8.259
							L56.7,169.484c0,0,21.487-13.447,32.537-7.71C100.287,167.51,96.457,182.677,96.457,182.677z"/>
					</g>
					<path style="fill:#B8BABC;" d="M39.895,199.256c-9.786-14.644,11.445-28.374,19.392-31.34c0,0-16.953,9.04-18.139,17.147
						c-1.187,8.108,82.243,34.808,82.243,34.808l-0.484,22.928C122.906,242.799,49.681,213.9,39.895,199.256z"/>
					<path style="fill:#B8BABC;" d="M95.143,230.096c-1.186-2.041,3.331-14.826,4.013-15.719c0.631-0.827,1.528-1.22,2.535-1.391
						c0.268-0.045,0.536-0.077,0.806-0.1c-11.598-4-26.054-9.193-38.023-14.139c1.418,1.151,2.783,2.378,3.984,3.755
						c1.161,1.331,2.205,2.828,2.782,4.511c0.557,1.628,0.558,3.269,0.063,4.912c-0.475,1.575-1.366,3.06-2.843,3.871
						c-1.16,0.637-2.514,0.774-3.819,0.662c10.048,5.325,21.557,10.674,31.677,15.148C95.871,231.155,95.47,230.66,95.143,230.096z"
						/>
					<path style="fill:#399AD5;" d="M98.84,170.276c-5.62-16.692-29.457-8.265-36.659-3.784c0,0,17.511-7.904,24.656-3.892
						c7.145,4.012-22.662,86.383-22.662,86.383l20.184,11.18C84.358,260.163,104.46,186.968,98.84,170.276z"/>
					<path style="fill:#7F53A2;" d="M67.095,248.018c-1.175-1.164,18.263-57.095,19.493-64.193
						c0.798-4.603,1.444-9.412,1.135-14.123c-2.392,20.816-23.548,79.281-23.548,79.281l20.184,11.18c0,0,0.003-0.009,0.003-0.011
						C81.482,258.128,68.407,249.318,67.095,248.018z"/>
				</g>
			</g>
		</g>
		<g>
			<g>
				<path style="fill:#E73628;" d="M225.101,164.692c-2.59-4.02-5.794-7.688-9.337-11.111c-3.543,3.423-6.747,7.092-9.337,11.111
					c-4.829,7.494-3.585,19.738,5.765,23.021c5.108,1.793,10.678-0.581,13.499-5.096c2.475-3.962,2.78-9.053,1.456-13.463
					C226.675,167.582,225.99,166.073,225.101,164.692z"/>
			</g>
			<g>
				<path style="fill:#FFFFFF;" d="M218.677,162.401c-1.086-1.685-2.428-3.222-3.913-4.657c-1.485,1.435-2.827,2.972-3.913,4.657
					c-2.024,3.14-1.502,8.272,2.416,9.648c2.141,0.751,4.475-0.244,5.657-2.136c1.037-1.66,1.165-3.794,0.61-5.642
					C219.337,163.612,219.049,162.979,218.677,162.401z"/>
			</g>
			<path style="fill:#FFFFFF;" d="M209.692,175.506c0,0.944-0.765,1.709-1.709,1.709s-1.709-0.765-1.709-1.709
				c0-0.944,0.765-1.709,1.709-1.709S209.692,174.562,209.692,175.506z"/>
		</g>
	</g>
</g>
</svg>
